<svg xmlns="http://www.w3.org/2000/svg" height="40" width="106" className="slogo">
<g className="text"><text x="6" y="30">BITe</text></g>
<g><circle r="5" cx="86" cy="4" fill="transparent"></circle><circle r="4" cx="86" cy="20" className="black"></circle><ellipse cx="85.4" cy="19.2" rx="2" ry="2" className="white"></ellipse><ellipse cx="85.8" cy="19.6" rx="2.2" ry="2.4" className="black"></ellipse><line x1="91" y1="20" x2="95" y2="20.4" ></line>
<circle r="2" cx="95.6" cy="20.6" className="black"></circle><ellipse cx="95.4" cy="20.2" rx="1" ry="1" className="white"></ellipse><ellipse cx="95.8" cy="20.6" rx="1.2" ry="1.4" className="black"></ellipse><line x1="88" y1="15.4" x2="90" y2="10" ></line>
<circle r="2" cx="90.2" cy="10.2" className="black"></circle><ellipse cx="90" cy="9.8" rx="1" ry="1" className="white"></ellipse><ellipse cx="90.4" cy="10.2" rx="1.2" ry="1.4" className="black"></ellipse><line x1="82" y1="17" x2="78" y2="14.6" ></line>
<circle r="2" cx="78.2" cy="14.8" className="black"></circle><ellipse cx="77.8" cy="14.4" rx="1" ry="1" className="white"></ellipse><ellipse cx="78.2" cy="14.8" rx="1.2" ry="1.4" className="black"></ellipse><line x1="82" y1="22" x2="78" y2="24" s></line>
<circle r="2" cx="78.2" cy="23.8" className="black"></circle><ellipse cx="77.8" cy="23.6" rx="1" ry="1" className="white"></ellipse><ellipse cx="78.2" cy="24" rx="1.2" ry="1.4" className="black"></ellipse><line x1="87" y1="25" x2="88" y2="28" ></line>
<circle r="2" cx="88" cy="28.2" className="black"></circle><ellipse cx="87.8" cy="28" rx="1" ry="1" className="white"></ellipse><ellipse cx="88.2" cy="28.4" rx="1.2" ry="1.4" className="black"></ellipse>
</g></svg>
